# xmcd
#
# Track frame offsets: 
#        150
#        15607
#        29872
#        39404
#        52076
#        70438
#        83253
#        102467
#
# Disc length: 1557 seconds
#
# Revision: 0
# Processed by: cddbd v1.5.2PL0 Copyright (c) Steve Scherf et al.
# Submitted via: ExactAudioCopy v0.99pb4
#
DISCID=67061308
DTITLE=Joel Harries - Broadcasts
DYEAR=2009
DGENRE=Folk
TTITLE0=Armed To The Teeth
TTITLE1=Howling
TTITLE2=Broadcasts
TTITLE3=Tunnels
TTITLE4=A Waste Land
TTITLE5=Alone
TTITLE6=Small Victories
TTITLE7=Come Home
EXTD=
EXTT0=
EXTT1=
EXTT2=
EXTT3=
EXTT4=
EXTT5=
EXTT6=
EXTT7=
PLAYORDER=
